# File created by Blade
# Date/Time:  Wed Jan 21 17:21:31 2015
# Frame Rate: 120.000 fps
#------------------------------------------------------
:FULLY-SPECIFIED
:DEGREES
728
root 18.473201 13.866992 -24.203505 -152.756446 16.344511 -199.420606
Spine -7.284296 29.048358 -24.603818
Head -26.663366 -13.939392 -4.457431
LeftShoulder -6.046359 -5.319574 3.379607
LeftArm -90.497090 51.444221 -137.407794
LeftForeArm -17.173417 0.000000 59.420523
LeftHand -21.286744 -0.000000 -6.357805
LeftHandThumb1 -26.253704 0.000000 33.147579
RightShoulder 2.312724 -3.479000 11.149987
RightArm 23.808591 17.120507 65.481949
RightForeArm -21.977239 -0.000000 4.616905
RightHand -4.510219 -0.000000 2.434588
RightHandThumb1 -24.326973 -0.000000 -32.862282
LeftUpLeg -124.137019 -9.200916 -41.656384
LeftLeg 120.083881 -0.000000 -0.000000
LeftFoot -41.098765 26.355532 -5.315674
LeftToeBase 20.912154 -0.000000 -0.000000
RightUpLeg 16.616891 -10.070942 -20.708174
RightLeg 142.764693 -0.000000 -0.000000
RightFoot 47.325208 -18.972065 -3.653605
RightToeBase 25.808698 -0.000000 -0.000000
729
root 18.472913 13.866039 -24.206567 -152.740743 16.366711 -199.399878
Spine -7.367586 28.997508 -24.709534
Head -26.995350 -14.039303 -4.401155
LeftShoulder -6.023518 -5.300008 3.390933
LeftArm -90.609711 51.445663 -137.476606
LeftForeArm -17.254329 -0.000000 59.561263
LeftHand -21.354467 -0.000000 -6.331024
LeftHandThumb1 -26.253704 0.000000 33.147579
RightShoulder 2.302180 -3.464132 11.182782
RightArm 23.799616 17.000795 65.456893
RightForeArm -22.058403 0.000000 4.584923
RightHand -4.576243 0.000000 2.551733
RightHandThumb1 -24.326973 -0.000000 -32.862282
LeftUpLeg -124.165050 -9.181720 -41.651009
LeftLeg 120.099488 -0.000000 -0.000000
LeftFoot -41.102366 26.365049 -5.293996
LeftToeBase 20.784355 -0.000000 -0.000000
RightUpLeg 16.602655 -10.097620 -20.710927
RightLeg 142.788455 -0.000000 -0.000000
RightFoot 47.293469 -18.953069 -3.660408
RightToeBase 25.865093 -0.000000 -0.000000
730
root 18.473933 13.864215 -24.209241 -152.725301 16.392678 -199.352778
Spine -7.448746 28.975822 -24.788266
Head -27.296533 -14.086630 -4.355396
LeftShoulder -5.965095 -5.323070 3.404945
LeftArm -90.724806 51.379248 -137.536068
LeftForeArm -17.306605 -0.000000 59.703274
LeftHand -21.346289 -0.000000 -6.175409
LeftHandThumb1 -26.253704 0.000000 33.147579
RightShoulder 2.285321 -3.397095 11.218041
RightArm 23.716060 16.814060 65.380076
RightForeArm -22.064774 0.000000 4.576941
RightHand -4.445968 -0.000000 2.884991
RightHandThumb1 -24.326973 -0.000000 -32.862282
LeftUpLeg -124.207601 -9.153628 -41.622226
LeftLeg 120.126549 -0.000000 -0.000000
LeftFoot -41.098254 26.351924 -5.289269
LeftToeBase 20.750154 -0.000000 -0.000000
RightUpLeg 16.580834 -10.152475 -20.700542
RightLeg 142.812196 -0.000000 -0.000000
RightFoot 47.311302 -19.024571 -3.692046
RightToeBase 25.738435 -0.000000 -0.000000
731
root 18.475623 13.861862 -24.211623 -152.714102 16.422280 -199.300559
Spine -7.522776 28.952320 -24.864277
Head -27.618712 -14.168922 -4.276849
LeftShoulder -5.921241 -5.319034 3.426391
LeftArm -90.829598 51.345729 -137.586480
LeftForeArm -17.317678 -0.000000 59.876909
LeftHand -21.325658 -0.000000 -5.883288
LeftHandThumb1 -26.253704 0.000000 33.147579
RightShoulder 2.260574 -3.346366 11.250677
RightArm 23.658699 16.529767 65.281152
RightForeArm -22.028366 -0.000000 4.569761
RightHand -4.430195 -0.000000 2.945676
RightHandThumb1 -24.326973 -0.000000 -32.862282
LeftUpLeg -124.252403 -9.116024 -41.587810
LeftLeg 120.156778 -0.000000 -0.000000
LeftFoot -41.101750 26.353585 -5.273221
LeftToeBase 20.767989 -0.000000 -0.000000
RightUpLeg 16.565755 -10.154599 -20.675229
RightLeg 142.843765 -0.000000 -0.000000
RightFoot 47.266019 -18.927967 -3.630087
RightToeBase 25.775938 -0.000000 -0.000000
732
root 18.477056 13.859038 -24.213933 -152.700853 16.448184 -199.244730
Spine -7.599813 28.899835 -24.935466
Head -27.921592 -14.184200 -4.174446
LeftShoulder -5.889108 -5.285659 3.455836
LeftArm -90.879729 51.311997 -137.604101
LeftForeArm -17.390606 -0.000000 60.040791
LeftHand -21.353119 -0.000000 -5.825397
LeftHandThumb1 -26.253704 0.000000 33.147579
RightShoulder 2.224243 -3.375106 11.287828
RightArm 23.699316 16.276321 65.217302
RightForeArm -22.050862 -0.000000 4.570769
RightHand -4.425513 -0.000000 2.932140
RightHandThumb1 -24.326973 -0.000000 -32.862282
LeftUpLeg -124.297836 -9.086704 -41.543549
LeftLeg 120.184776 -0.000000 -0.000000
LeftFoot -41.096735 26.373786 -5.243692
LeftToeBase 20.746882 -0.000000 -0.000000
RightUpLeg 16.551007 -10.188935 -20.647486
RightLeg 142.868243 -0.000000 -0.000000
RightFoot 47.274784 -18.916512 -3.614020
RightToeBase 26.140068 -0.000000 -0.000000
733
root 18.476710 13.857039 -24.211168 -152.592624 16.466569 -199.156784
Spine -7.799956 28.807292 -24.997054
Head -28.118033 -14.206532 -4.115003
LeftShoulder -5.876132 -5.237952 3.488424
LeftArm -90.937105 51.272335 -137.632553
LeftForeArm -17.403090 -0.000000 60.190632
LeftHand -21.410663 -0.000000 -5.840795
LeftHandThumb1 -26.253704 0.000000 33.147579
RightShoulder 2.165805 -3.429408 11.297274
RightArm 23.764339 16.075287 65.228753
RightForeArm -22.101014 -0.000000 4.555736
RightHand -4.409726 -0.000000 2.801120
RightHandThumb1 -24.326973 -0.000000 -32.862282
LeftUpLeg -124.414425 -9.122893 -41.445120
LeftLeg 120.193362 -0.000000 -0.000000
LeftFoot -41.085819 26.418810 -5.192534
LeftToeBase 20.756041 -0.000000 -0.000000
RightUpLeg 16.438185 -10.253208 -20.578462
RightLeg 142.923170 -0.000000 -0.000000
RightFoot 47.273834 -18.899749 -3.590353
RightToeBase 26.010066 -0.000000 -0.000000
734
root 18.478545 13.853114 -24.213452 -152.574321 16.493612 -199.099693
Spine -7.898115 28.748411 -25.064510
Head -28.350257 -14.218345 -4.013408
LeftShoulder -5.836175 -5.249610 3.544547
LeftArm -90.986515 51.193752 -137.651987
LeftForeArm -17.387353 -0.000000 60.340317
LeftHand -21.467275 -0.000000 -5.863298
LeftHandThumb1 -26.253704 0.000000 33.147579
RightShoulder 2.092807 -3.398041 11.334399
RightArm 23.792526 15.900509 65.271027
RightForeArm -22.133260 0.000000 4.561867
RightHand -4.470149 -0.000000 2.518714
RightHandThumb1 -24.326973 -0.000000 -32.862282
LeftUpLeg -124.469443 -9.101427 -41.396022
LeftLeg 120.225883 -0.000000 -0.000000
LeftFoot -41.092391 26.440201 -5.178947
LeftToeBase 20.824719 -0.000000 -0.000000
RightUpLeg 16.422655 -10.317968 -20.558424
RightLeg 142.955711 -0.000000 -0.000000
RightFoot 47.289141 -18.892495 -3.651115
RightToeBase 25.921969 -0.000000 -0.000000
